<?xml version="1.0" encoding="utf-8"?>
<!-- Generator: Adobe Illustrator 15.0.2, SVG Export Plug-In . SVG Version: 6.00 Build 0)  -->
<!DOCTYPE svg PUBLIC "-//W3C//DTD SVG 1.1//EN" "http://www.w3.org/Graphics/SVG/1.1/DTD/svg11.dtd">
<svg version="1.1" id="Layer_1" xmlns="http://www.w3.org/2000/svg" xmlns:xlink="http://www.w3.org/1999/xlink" x="0px" y="0px"
	 width="100px" height="100.006px" viewBox="0 -45.387 100 100.006" enable-background="new 0 -45.387 100 100.006"
	 xml:space="preserve">
<path d="M77.959,30.376H11.282C5.061,30.376,0,25.315,0,19.096c0-5.277,3.643-9.719,8.546-10.944
	c2.188-5.468,7.248-9.385,13.149-10.088c0.622-12.697,11.148-22.838,23.998-22.838c9.417,0,17.823,5.536,21.723,13.756
	c3.203-1.75,6.812-2.682,10.543-2.682C90.111-13.7,100-3.813,100,8.339C100,20.49,90.113,30.376,77.959,30.376L77.959,30.376z
	 M11.209,15.596c-1.897,0.039-3.429,1.594-3.429,3.5c0,1.931,1.57,3.5,3.501,3.5h66.678c7.863,0,14.26-6.395,14.26-14.257
	c0-7.862-6.396-14.258-14.26-14.258c-3.684,0-7.18,1.403-9.848,3.952l-5.096,4.87l-1.404-6.907
	c-1.528-7.527-8.223-12.99-15.918-12.99c-8.958,0-16.247,7.288-16.247,16.246c0,0.728,0.054,1.483,0.159,2.247l0.73,5.286
	l-5.256-0.924c-0.498-0.087-0.993-0.132-1.474-0.132c-4.002,0-7.479,2.842-8.267,6.756l-0.65,3.227l-3.29-0.106
	C11.336,15.603,11.272,15.599,11.209,15.596L11.209,15.596z"/>
</svg>
