<svg xmlns="http://www.w3.org/2000/svg" version="1.1" width="100" height="100" viewBox="0 0 32 32">
	<path d="M19.559,19.854l0.326-0.603h-6.497l1.406,2h4.032C19.154,20.606,19.425,20.1,19.559,19.854z    M8.829,23.289l3.088,3.088l3.088-3.088l-3.088-4.393L8.829,23.289z M26.002,12.404c-1.035-1.985-3.07-3.236-5.348-3.236   c-0.526,0-1.045,0.067-1.547,0.2C17.717,7.559,15.59,6.5,13.277,6.5c-3.513,0-6.525,2.523-7.219,5.891   c-2.151,0.313-3.809,2.17-3.809,4.406c0,2.455,1.998,4.453,4.453,4.453H9.04l1.406-2H6.702c-1.353,0-2.453-1.102-2.453-2.453   c0-1.351,1.098-2.45,2.44-2.45h0.004l1.154,0.075l0.077-0.976c0.219-2.773,2.57-4.945,5.352-4.945c1.882,0,3.595,0.964,4.583,2.578   l0.447,0.731l0.791-0.33c0.492-0.207,1.019-0.311,1.557-0.311c1.664,0,3.137,1,3.752,2.549l0.248,0.623l0.67,0.008   c1.338,0.016,2.426,1.114,2.426,2.449c0,1.353-1.102,2.453-2.455,2.453H20.99l0.326,0.603c0.134,0.246,0.405,0.753,0.732,1.397   h3.246c2.456,0,4.455-1.998,4.455-4.453C29.75,14.595,28.12,12.746,26.002,12.404z M17.461,27.462c0,1.643,1.334,2.976,2.977,2.976   s2.977-1.333,2.977-2.976c0-1.644-2.977-7.132-2.977-7.132S17.461,25.82,17.461,27.462z"/>
</svg>