<svg xmlns="http://www.w3.org/2000/svg" version="1.1" width="100" height="100" viewBox="0 0 32 32">
<path id="partly-cloudy-day" d="M26.002,12.404c-1.035-1.985-3.07-3.236-5.348-3.236  c-0.526,0-1.045,0.067-1.547,0.2C17.717,7.559,15.59,6.5,13.277,6.5c-3.513,0-6.525,2.523-7.219,5.891  c-2.151,0.313-3.809,2.17-3.809,4.406c0,2.455,1.998,4.453,4.453,4.453h18.593c2.456,0,4.455-1.998,4.455-4.453  C29.75,14.595,28.12,12.746,26.002,12.404z M25.295,19.25H6.702c-1.353,0-2.453-1.102-2.453-2.453c0-1.351,1.098-2.45,2.44-2.45  h0.004l1.154,0.075l0.077-0.976c0.219-2.773,2.57-4.945,5.352-4.945c1.882,0,3.595,0.964,4.583,2.578l0.447,0.731l0.791-0.33  c0.492-0.207,1.019-0.311,1.557-0.311c1.664,0,3.137,1,3.752,2.549l0.248,0.623l0.67,0.008c1.338,0.016,2.426,1.114,2.426,2.449  C27.75,18.148,26.648,19.25,25.295,19.25z M29.956,9.857L29.17,9.702c-1.619-0.319-1.927-1.469-0.686-2.555l0.604-0.527  c1.242-1.086,0.98-1.539-0.58-1.006l-0.761,0.259c-1.562,0.533-2.401-0.309-1.87-1.871l0.262-0.759  c0.53-1.562,0.078-1.823-1.008-0.581l-0.527,0.604c-1.086,1.242-2.234,0.934-2.556-0.685l-0.155-0.787  c-0.316-1.619-0.843-1.619-1.16,0l-0.154,0.787C20.26,4.2,19.107,4.508,18.021,3.266l-0.525-0.604  C16.41,1.42,15.957,1.681,16.49,3.243l0.259,0.759c0.371,1.088,0.063,1.813-0.677,1.981c0.48,0.169,0.948,0.375,1.388,0.63  c0.983-0.991,2.349-1.605,3.854-1.605c3,0,5.433,2.431,5.433,5.431c0,0.365-0.037,0.721-0.104,1.065  c0.004,0.006,0.008,0.011,0.012,0.017c0.421,0.108,0.812,0.282,1.186,0.482c0.188-0.384,0.627-0.689,1.337-0.829l0.786-0.154  C31.575,10.699,31.575,10.176,29.956,9.857z M19.49,8.265c0.383-0.064,0.771-0.096,1.164-0.096c1.959,0,3.771,0.811,5.08,2.18  c-0.049-2.401-2.01-4.342-4.422-4.342c-1.158,0-2.205,0.457-2.994,1.186C18.736,7.511,19.132,7.865,19.49,8.265z"/>
</svg>