<svg xmlns="http://www.w3.org/2000/svg" version="1.1" width="100" height="100" viewBox="0 0 32 32">
	<path id="rain-snow" d="M14.632,24.137h-1.049L13.216,23.5l0.524-0.908   c0.138-0.238,0.056-0.545-0.184-0.683c-0.239-0.14-0.545-0.058-0.683,0.183L12.35,23h-0.735l-0.523-0.908   c-0.14-0.238-0.445-0.322-0.684-0.183c-0.239,0.138-0.321,0.442-0.183,0.683l0.524,0.909l-0.367,0.636H9.333   c-0.276,0-0.5,0.225-0.5,0.5c0,0.276,0.224,0.5,0.5,0.5h1.049l0.367,0.637l-0.524,0.908c-0.139,0.239-0.057,0.545,0.183,0.686   c0.079,0.046,0.165,0.064,0.25,0.064c0.173,0,0.341-0.09,0.434-0.25l0.525-0.908h0.732l0.525,0.908   c0.093,0.16,0.261,0.25,0.434,0.25c0.085,0,0.171-0.021,0.249-0.064c0.239-0.141,0.321-0.443,0.184-0.686l-0.525-0.908l0.367-0.637   h1.05c0.276,0,0.5-0.224,0.5-0.5C15.133,24.361,14.909,24.137,14.632,24.137z M12.35,25.271h-0.734l-0.367-0.638L11.616,24h0.734   l0.367,0.637L12.35,25.271z M26.002,12.404c-1.035-1.985-3.07-3.236-5.348-3.236c-0.526,0-1.045,0.067-1.547,0.2   C17.717,7.559,15.59,6.5,13.277,6.5c-3.513,0-6.525,2.523-7.219,5.891c-2.151,0.313-3.809,2.17-3.809,4.406   c0,2.455,1.998,4.453,4.453,4.453h2.969c0.078-0.07,0.144-0.154,0.238-0.208c0.223-0.13,0.483-0.201,0.749-0.201   c0.384,0,0.746,0.153,1.021,0.409h0.608c0.274-0.256,0.636-0.409,1.021-0.409c0.264,0,0.525,0.071,0.754,0.205   c0.091,0.054,0.156,0.136,0.233,0.204h4.411c0.315-0.706,0.647-1.396,0.95-2H6.702c-1.353,0-2.453-1.102-2.453-2.453   c0-1.351,1.098-2.45,2.44-2.45h0.004l1.154,0.075l0.077-0.976c0.219-2.773,2.57-4.945,5.352-4.945c1.882,0,3.595,0.964,4.583,2.578   l0.447,0.731l0.791-0.33c0.492-0.207,1.019-0.311,1.557-0.311c1.664,0,3.137,1,3.752,2.549l0.248,0.623l0.67,0.008   c1.338,0.016,2.426,1.114,2.426,2.449c0,1.353-1.102,2.453-2.455,2.453h-2.074c0.301,0.603,0.635,1.294,0.949,2h1.125   c2.456,0,4.455-1.998,4.455-4.453C29.75,14.595,28.12,12.746,26.002,12.404z M18.462,25.123c0,1.643,1.333,2.977,2.976,2.977   c1.646,0,2.979-1.334,2.979-2.977s-2.979-7.132-2.979-7.132S18.462,23.48,18.462,25.123z"/>
</svg>