<?xml version="1.0" encoding="utf-8"?>
<!-- Generator: Adobe Illustrator 15.0.2, SVG Export Plug-In . SVG Version: 6.00 Build 0)  -->
<!DOCTYPE svg PUBLIC "-//W3C//DTD SVG 1.1//EN" "http://www.w3.org/Graphics/SVG/1.1/DTD/svg11.dtd">
<svg version="1.1" id="Layer_1" xmlns="http://www.w3.org/2000/svg" xmlns:xlink="http://www.w3.org/1999/xlink" x="0px" y="0px"
	 width="100px" height="100.006px" viewBox="0 -8.543 100 100.006" enable-background="new 0 -8.543 100 100.006"
	 xml:space="preserve">
<path d="M77.958,55.157H11.281C5.062,55.157,0,50.095,0,43.873c0-5.278,3.642-9.721,8.545-10.945
	c2.189-5.471,7.248-9.386,13.149-10.09C22.314,10.14,32.842,0,45.693,0c9.415,0,17.821,5.537,21.721,13.758
	c3.205-1.752,6.812-2.685,10.544-2.685c12.153,0,22.042,9.888,22.042,22.042C100,45.267,90.111,55.157,77.958,55.157L77.958,55.157z
	 M11.209,40.371c-1.897,0.042-3.43,1.598-3.43,3.501c0,1.931,1.57,3.502,3.502,3.502h66.677c7.864,0,14.26-6.397,14.26-14.26
	c0-7.863-6.395-14.26-14.26-14.26c-3.683,0-7.179,1.405-9.847,3.95l-5.096,4.871l-1.406-6.906
	c-1.525-7.526-8.221-12.988-15.917-12.988c-8.958,0-16.247,7.286-16.247,16.244c0,0.728,0.054,1.482,0.157,2.249l0.73,5.284
	l-5.257-0.923c-0.496-0.086-0.992-0.131-1.474-0.131c-4,0-7.479,2.842-8.266,6.757l-0.65,3.229l-3.291-0.107
	C11.334,40.38,11.271,40.377,11.209,40.371L11.209,40.371z"/>
<path d="M27.843,71.985c-1.266,0-2.524,0-3.784,0c0.63-1.088,1.26-2.178,1.883-3.264c1.42-2.457-2.376-4.664-3.79-2.217
	c-0.63,1.094-1.265,2.189-1.895,3.285c-0.63-1.096-1.266-2.191-1.896-3.285c-1.413-2.447-5.209-0.24-3.79,2.217
	c0.63,1.086,1.254,2.176,1.884,3.264c-1.26,0-2.52,0-3.784,0c-2.828,0-2.828,4.388,0,4.388c1.265,0,2.524,0,3.784,0
	c-0.624,1.09-1.254,2.177-1.884,3.269c-1.419,2.452,2.377,4.662,3.79,2.215c0.63-1.094,1.266-2.188,1.896-3.284
	c0.63,1.096,1.265,2.19,1.895,3.284c1.414,2.447,5.21,0.237,3.79-2.215c-0.63-1.092-1.253-2.179-1.883-3.269c1.26,0,2.519,0,3.784,0
	C30.67,76.373,30.67,71.985,27.843,71.985z"/>
<path d="M57.58,71.985c-1.26,0-2.52,0-3.777,0c0.629-1.088,1.254-2.178,1.883-3.264c1.42-2.457-2.377-4.664-3.791-2.217
	C51.266,67.599,50.63,68.694,50,69.79c-0.63-1.096-1.266-2.191-1.895-3.285c-1.42-2.447-5.21-0.24-3.79,2.217
	c0.623,1.086,1.253,2.176,1.883,3.264c-1.26,0-2.524,0-3.784,0c-2.827,0-2.827,4.388,0,4.388c1.26,0,2.524,0,3.784,0
	c-0.63,1.09-1.253,2.177-1.883,3.269c-1.42,2.452,2.37,4.662,3.79,2.215c0.629-1.094,1.265-2.188,1.895-3.284
	c0.63,1.096,1.266,2.19,1.895,3.284c1.414,2.447,5.211,0.237,3.791-2.215c-0.629-1.092-1.26-2.179-1.883-3.269
	c1.26,0,2.518,0,3.777,0C60.413,76.373,60.413,71.985,57.58,71.985z"/>
<path d="M87.322,71.985c-1.258,0-2.518,0-3.777,0c0.63-1.088,1.254-2.178,1.885-3.264c1.418-2.457-2.377-4.664-3.791-2.217
	c-0.63,1.094-1.266,2.189-1.896,3.285c-0.63-1.096-1.265-2.191-1.896-3.285c-1.42-2.447-5.209-0.24-3.789,2.217
	c0.623,1.086,1.252,2.176,1.883,3.264c-1.26,0-2.524,0-3.784,0c-2.827,0-2.827,4.388,0,4.388c1.26,0,2.524,0,3.784,0
	c-0.631,1.09-1.254,2.177-1.883,3.269c-1.42,2.452,2.369,4.662,3.789,2.215c0.631-1.094,1.266-2.188,1.896-3.284
	c0.63,1.096,1.266,2.19,1.896,3.284c1.414,2.447,5.209,0.237,3.791-2.215c-0.631-1.092-1.261-2.179-1.885-3.269
	c1.26,0,2.52,0,3.777,0C90.157,76.373,90.157,71.985,87.322,71.985z"/>
</svg>
